<svg xmlns="http://www.w3.org/2000/svg" viewBox="0 0 960 820" role="img" aria-labelledby="title desc"><title id="title">High Street</title><desc id="desc">Two forest-green crossing street signs: HIGH with cannabis leaf and STREET below.</desc><defs><linearGradient id="face" x1="0" y1="0" x2="1" y2="1"><stop stop-color="#075e3d"/><stop offset=".55" stop-color="#005037"/><stop offset="1" stop-color="#003525"/></linearGradient><linearGradient id="pole"><stop stop-color="#00291c"/><stop offset=".5" stop-color="#245f47"/><stop offset="1" stop-color="#001e15"/></linearGradient><filter id="shadow" x="-15%" y="-25%" width="130%" height="150%"><feDropShadow dx="3" dy="10" stdDeviation="8" flood-color="#001e15" flood-opacity=".27"/></filter></defs><path d="M452 80Q452 60 470 60H490Q508 60 508 80V774H452Z" fill="url(#pole)" stroke="#002b1d" stroke-width="9"/><g filter="url(#shadow)" transform="rotate(10 480 298)"><rect x="105" y="140" width="750" height="290" rx="33" fill="#002e21" stroke="#002015" stroke-width="11"/><rect x="119" y="150" width="722" height="265" rx="28" fill="url(#face)" stroke="#eaf0d9" stroke-width="10"/><text x="190" y="348" fill="#fffcef" font-size="195" font-weight="900" font-family="Arial,Helvetica,sans-serif" letter-spacing="3">HIGH</text><g transform="translate(739 280)" fill="#fffcef"><path d="M0-99L14-43 46-70 30-21 70-29 37-5 65 16 22 9 27 43 6 18 5 79-5 79-6 18-27 43-22 9-65 16-37-5-70-29-30-21-46-70-14-43Z"/></g><circle cx="480" cy="168" r="12" fill="#d9ded5" stroke="#1b3930" stroke-width="6"/><circle cx="480" cy="398" r="12" fill="#d9ded5" stroke="#1b3930" stroke-width="6"/></g><g filter="url(#shadow)" transform="rotate(-8 480 530)"><rect x="78" y="412" width="804" height="284" rx="35" fill="#002c1f" stroke="#002015" stroke-width="11"/><rect x="93" y="427" width="774" height="253" rx="26" fill="url(#face)" stroke="#fffcef" stroke-width="10"/><text x="155" y="612" fill="#fffcef" font-size="170" font-weight="900" font-family="Arial,Helvetica,sans-serif" letter-spacing="2">STREET</text><circle cx="480" cy="447" r="12" fill="#d9ded5" stroke="#173d31" stroke-width="6"/><circle cx="480" cy="664" r="12" fill="#d9ded5" stroke="#173d31" stroke-width="6"/></g></svg>